<?xml version="1.0" encoding="UTF-8" standalone="no"?>
<!DOCTYPE svg PUBLIC "-//W3C//DTD SVG 1.1//EN"
 "http://www.w3.org/Graphics/SVG/1.1/DTD/svg11.dtd">
<!-- Generated by graphviz version 2.40.1 (20161225.0304)
 -->
<!-- Title: dependencies Pages: 1 -->
<svg width="1749pt" height="284pt"
 viewBox="0.00 0.00 1749.00 284.00" xmlns="http://www.w3.org/2000/svg" xmlns:xlink="http://www.w3.org/1999/xlink">
<g id="graph0" class="graph" transform="scale(1 1) rotate(0) translate(4 280)">
<title>dependencies</title>
<polygon fill="#ffffff" stroke="transparent" points="-4,4 -4,-280 1745,-280 1745,4 -4,4"/>
<text text-anchor="start" x="849.5091" y="-42.4" font-family="sans-serif" font-weight="bold" font-size="14.00" fill="#000000">Legend</text>
<polygon fill="#ffffb3" stroke="transparent" points="636.5,-10 636.5,-30 656.5,-30 656.5,-10 636.5,-10"/>
<text text-anchor="start" x="660.129" y="-15.4" font-family="sans-serif" font-size="14.00" fill="#000000"> &#160;Declarations</text>
<polygon fill="#8dd3c7" stroke="transparent" points="749.5,-10 749.5,-30 769.5,-30 769.5,-10 749.5,-10"/>
<text text-anchor="start" x="773.2251" y="-15.4" font-family="sans-serif" font-size="14.00" fill="#000000"> &#160;Module</text>
<polygon fill="#80b1d3" stroke="transparent" points="835.5,-10 835.5,-30 855.5,-30 855.5,-10 835.5,-10"/>
<text text-anchor="start" x="859.2812" y="-15.4" font-family="sans-serif" font-size="14.00" fill="#000000"> &#160;Bootstrap</text>
<polygon fill="#fdb462" stroke="transparent" points="932.5,-10 932.5,-30 952.5,-30 952.5,-10 932.5,-10"/>
<text text-anchor="start" x="956.1732" y="-15.4" font-family="sans-serif" font-size="14.00" fill="#000000"> &#160;Providers</text>
<polygon fill="#fb8072" stroke="transparent" points="1028.5,-10 1028.5,-30 1048.5,-30 1048.5,-10 1028.5,-10"/>
<text text-anchor="start" x="1052.2258" y="-15.4" font-family="sans-serif" font-size="14.00" fill="#000000"> &#160;Exports</text>
<g id="clust1" class="cluster">
<title>cluster_AppModule</title>
<polygon fill="none" stroke="#000000" stroke-dasharray="1,5" points="8,-70 8,-268 1733,-268 1733,-70 8,-70"/>
</g>
<g id="clust2" class="cluster">
<title>cluster_AppModule_declarations</title>
<polygon fill="none" stroke="#000000" points="460,-78 460,-130 1725,-130 1725,-78 460,-78"/>
</g>
<g id="clust14" class="cluster">
<title>cluster_AppModule_bootstrap</title>
<polygon fill="none" stroke="#000000" points="378,-208 378,-260 1388,-260 1388,-208 378,-208"/>
</g>
<g id="clust15" class="cluster">
<title>cluster_AppModule_providers</title>
<polygon fill="none" stroke="#000000" points="16,-78 16,-130 452,-130 452,-78 16,-78"/>
</g>
<!-- AppComponent -->
<g id="node1" class="node">
<title>AppComponent</title>
<polygon fill="#ffffb3" stroke="#000000" points="1716.9399,-122 1611.0601,-122 1611.0601,-86 1716.9399,-86 1716.9399,-122"/>
<text text-anchor="middle" x="1664" y="-99.8" font-family="Times,serif" font-size="14.00" fill="#000000">AppComponent</text>
</g>
<!-- AppModule -->
<g id="node10" class="node">
<title>AppModule</title>
<polygon fill="#8dd3c7" stroke="#000000" points="957.6571,-187 954.6571,-191 933.6571,-191 930.6571,-187 874.3429,-187 874.3429,-151 957.6571,-151 957.6571,-187"/>
<text text-anchor="middle" x="916" y="-164.8" font-family="Times,serif" font-size="14.00" fill="#000000">AppModule</text>
</g>
<!-- AppComponent&#45;&gt;AppModule -->
<g id="edge1" class="edge">
<title>AppComponent&#45;&gt;AppModule</title>
<path fill="none" stroke="#000000" d="M1664,-122.308C1664,-142.1455 1664,-171 1664,-171 1664,-171 967.8185,-171 967.8185,-171"/>
<polygon fill="#000000" stroke="#000000" points="967.8186,-167.5001 957.8185,-171 967.8185,-174.5001 967.8186,-167.5001"/>
</g>
<!-- LoginComponent -->
<g id="node2" class="node">
<title>LoginComponent</title>
<polygon fill="#ffffb3" stroke="#000000" points="1593.2758,-122 1478.7242,-122 1478.7242,-86 1593.2758,-86 1593.2758,-122"/>
<text text-anchor="middle" x="1536" y="-99.8" font-family="Times,serif" font-size="14.00" fill="#000000">LoginComponent</text>
</g>
<!-- LoginComponent&#45;&gt;AppModule -->
<g id="edge2" class="edge">
<title>LoginComponent&#45;&gt;AppModule</title>
<path fill="none" stroke="#000000" d="M1536,-122.2222C1536,-140.8285 1536,-167 1536,-167 1536,-167 968.1277,-167 968.1277,-167"/>
<polygon fill="#000000" stroke="#000000" points="968.1277,-163.5001 958.1277,-167 968.1276,-170.5001 968.1277,-163.5001"/>
</g>
<!-- HomeComponent -->
<g id="node3" class="node">
<title>HomeComponent</title>
<polygon fill="#ffffb3" stroke="#000000" points="1460.5451,-122 1345.4549,-122 1345.4549,-86 1460.5451,-86 1460.5451,-122"/>
<text text-anchor="middle" x="1403" y="-99.8" font-family="Times,serif" font-size="14.00" fill="#000000">HomeComponent</text>
</g>
<!-- HomeComponent&#45;&gt;AppModule -->
<g id="edge3" class="edge">
<title>HomeComponent&#45;&gt;AppModule</title>
<path fill="none" stroke="#000000" d="M1362.8487,-122.0225C1362.8487,-139.3734 1362.8487,-163 1362.8487,-163 1362.8487,-163 968.0384,-163 968.0384,-163"/>
<polygon fill="#000000" stroke="#000000" points="968.0385,-159.5001 958.0384,-163 968.0384,-166.5001 968.0385,-159.5001"/>
</g>
<!-- AnswerComponent -->
<g id="node4" class="node">
<title>AnswerComponent</title>
<polygon fill="#ffffb3" stroke="#000000" points="1327.3655,-122 1202.6345,-122 1202.6345,-86 1327.3655,-86 1327.3655,-122"/>
<text text-anchor="middle" x="1265" y="-99.8" font-family="Times,serif" font-size="14.00" fill="#000000">AnswerComponent</text>
</g>
<!-- AnswerComponent&#45;&gt;AppModule -->
<g id="edge4" class="edge">
<title>AnswerComponent&#45;&gt;AppModule</title>
<path fill="none" stroke="#000000" d="M1228.0447,-122.0091C1228.0447,-138.0494 1228.0447,-159 1228.0447,-159 1228.0447,-159 967.7599,-159 967.7599,-159"/>
<polygon fill="#000000" stroke="#000000" points="967.76,-155.5001 957.7599,-159 967.7599,-162.5001 967.76,-155.5001"/>
</g>
<!-- FilterComponent -->
<g id="node5" class="node">
<title>FilterComponent</title>
<polygon fill="#ffffb3" stroke="#000000" points="1184.6625,-122 1073.3375,-122 1073.3375,-86 1184.6625,-86 1184.6625,-122"/>
<text text-anchor="middle" x="1129" y="-99.8" font-family="Times,serif" font-size="14.00" fill="#000000">FilterComponent</text>
</g>
<!-- FilterComponent&#45;&gt;AppModule -->
<g id="edge5" class="edge">
<title>FilterComponent&#45;&gt;AppModule</title>
<path fill="none" stroke="#000000" d="M1094.6534,-122.1243C1094.6534,-136.7832 1094.6534,-155 1094.6534,-155 1094.6534,-155 967.8863,-155 967.8863,-155"/>
<polygon fill="#000000" stroke="#000000" points="967.8863,-151.5001 957.8863,-155 967.8862,-158.5001 967.8863,-151.5001"/>
</g>
<!-- ProfileComponent -->
<g id="node6" class="node">
<title>ProfileComponent</title>
<polygon fill="#ffffb3" stroke="#000000" points="1054.9328,-122 935.0672,-122 935.0672,-86 1054.9328,-86 1054.9328,-122"/>
<text text-anchor="middle" x="995" y="-99.8" font-family="Times,serif" font-size="14.00" fill="#000000">ProfileComponent</text>
</g>
<!-- ProfileComponent&#45;&gt;AppModule -->
<g id="edge6" class="edge">
<title>ProfileComponent&#45;&gt;AppModule</title>
<path fill="none" stroke="#000000" d="M946.5561,-122.1061C946.5561,-122.1061 946.5561,-140.991 946.5561,-140.991"/>
<polygon fill="#000000" stroke="#000000" points="943.0562,-140.9909 946.5561,-150.991 950.0562,-140.991 943.0562,-140.9909"/>
</g>
<!-- SearchResultsComponent -->
<g id="node7" class="node">
<title>SearchResultsComponent</title>
<polygon fill="#ffffb3" stroke="#000000" points="917.1414,-122 756.8586,-122 756.8586,-86 917.1414,-86 917.1414,-122"/>
<text text-anchor="middle" x="837" y="-99.8" font-family="Times,serif" font-size="14.00" fill="#000000">SearchResultsComponent</text>
</g>
<!-- SearchResultsComponent&#45;&gt;AppModule -->
<g id="edge7" class="edge">
<title>SearchResultsComponent&#45;&gt;AppModule</title>
<path fill="none" stroke="#000000" d="M895.7462,-122.1061C895.7462,-122.1061 895.7462,-140.991 895.7462,-140.991"/>
<polygon fill="#000000" stroke="#000000" points="892.2462,-140.9909 895.7462,-150.991 899.2462,-140.991 892.2462,-140.9909"/>
</g>
<!-- SignupComponent -->
<g id="node8" class="node">
<title>SignupComponent</title>
<polygon fill="#ffffb3" stroke="#000000" points="738.5056,-122 617.4944,-122 617.4944,-86 738.5056,-86 738.5056,-122"/>
<text text-anchor="middle" x="678" y="-99.8" font-family="Times,serif" font-size="14.00" fill="#000000">SignupComponent</text>
</g>
<!-- SignupComponent&#45;&gt;AppModule -->
<g id="edge8" class="edge">
<title>SignupComponent&#45;&gt;AppModule</title>
<path fill="none" stroke="#000000" d="M724.5184,-122.1243C724.5184,-136.7832 724.5184,-155 724.5184,-155 724.5184,-155 863.9786,-155 863.9786,-155"/>
<polygon fill="#000000" stroke="#000000" points="863.9786,-158.5001 873.9786,-155 863.9785,-151.5001 863.9786,-158.5001"/>
</g>
<!-- QuestionComponent -->
<g id="node9" class="node">
<title>QuestionComponent</title>
<polygon fill="#ffffb3" stroke="#000000" points="599.8795,-122 468.1205,-122 468.1205,-86 599.8795,-86 599.8795,-122"/>
<text text-anchor="middle" x="534" y="-99.8" font-family="Times,serif" font-size="14.00" fill="#000000">QuestionComponent</text>
</g>
<!-- QuestionComponent&#45;&gt;AppModule -->
<g id="edge9" class="edge">
<title>QuestionComponent&#45;&gt;AppModule</title>
<path fill="none" stroke="#000000" d="M563.9346,-122.0091C563.9346,-138.0494 563.9346,-159 563.9346,-159 563.9346,-159 864.2309,-159 864.2309,-159"/>
<polygon fill="#000000" stroke="#000000" points="864.231,-162.5001 874.2309,-159 864.2309,-155.5001 864.231,-162.5001"/>
</g>
<!-- AppComponent  -->
<g id="node11" class="node">
<title>AppComponent </title>
<polygon fill="#80b1d3" stroke="#000000" points="1380.439,-252 1271.561,-252 1271.561,-216 1380.439,-216 1380.439,-252"/>
<text text-anchor="middle" x="1326" y="-229.8" font-family="Times,serif" font-size="14.00" fill="#000000">AppComponent </text>
</g>
<!-- AppModule&#45;&gt;AppComponent  -->
<g id="edge10" class="edge">
<title>AppModule&#45;&gt;AppComponent </title>
<path fill="none" stroke="#000000" stroke-dasharray="1,5" d="M957.7693,-175C1057.1593,-175 1299.4816,-175 1299.4816,-175 1299.4816,-175 1299.4816,-205.9775 1299.4816,-205.9775"/>
<polygon fill="#000000" stroke="#000000" points="1295.9817,-205.9774 1299.4816,-215.9775 1302.9817,-205.9775 1295.9817,-205.9774"/>
</g>
<!-- HomeComponent  -->
<g id="node12" class="node">
<title>HomeComponent </title>
<polygon fill="#80b1d3" stroke="#000000" points="1253.5442,-252 1134.4558,-252 1134.4558,-216 1253.5442,-216 1253.5442,-252"/>
<text text-anchor="middle" x="1194" y="-229.8" font-family="Times,serif" font-size="14.00" fill="#000000">HomeComponent </text>
</g>
<!-- AppModule&#45;&gt;HomeComponent  -->
<g id="edge11" class="edge">
<title>AppModule&#45;&gt;HomeComponent </title>
<path fill="none" stroke="#000000" stroke-dasharray="1,5" d="M957.8857,-179C1027.5501,-179 1159.6545,-179 1159.6545,-179 1159.6545,-179 1159.6545,-205.9909 1159.6545,-205.9909"/>
<polygon fill="#000000" stroke="#000000" points="1156.1545,-205.9909 1159.6545,-215.9909 1163.1545,-205.991 1156.1545,-205.9909"/>
</g>
<!-- LoginComponent  -->
<g id="node13" class="node">
<title>LoginComponent </title>
<polygon fill="#80b1d3" stroke="#000000" points="1116.2759,-252 997.7241,-252 997.7241,-216 1116.2759,-216 1116.2759,-252"/>
<text text-anchor="middle" x="1057" y="-229.8" font-family="Times,serif" font-size="14.00" fill="#000000">LoginComponent </text>
</g>
<!-- AppModule&#45;&gt;LoginComponent  -->
<g id="edge12" class="edge">
<title>AppModule&#45;&gt;LoginComponent </title>
<path fill="none" stroke="#000000" stroke-dasharray="1,5" d="M957.6956,-183C988.9275,-183 1026.2891,-183 1026.2891,-183 1026.2891,-183 1026.2891,-205.8757 1026.2891,-205.8757"/>
<polygon fill="#000000" stroke="#000000" points="1022.7892,-205.8757 1026.2891,-215.8757 1029.7892,-205.8757 1022.7892,-205.8757"/>
</g>
<!-- AnswerComponent  -->
<g id="node14" class="node">
<title>AnswerComponent </title>
<polygon fill="#80b1d3" stroke="#000000" points="980.3659,-252 851.6341,-252 851.6341,-216 980.3659,-216 980.3659,-252"/>
<text text-anchor="middle" x="916" y="-229.8" font-family="Times,serif" font-size="14.00" fill="#000000">AnswerComponent </text>
</g>
<!-- AppModule&#45;&gt;AnswerComponent  -->
<g id="edge13" class="edge">
<title>AppModule&#45;&gt;AnswerComponent </title>
<path fill="none" stroke="#000000" stroke-dasharray="1,5" d="M916,-187.1061C916,-187.1061 916,-205.991 916,-205.991"/>
<polygon fill="#000000" stroke="#000000" points="912.5001,-205.9909 916,-215.991 919.5001,-205.991 912.5001,-205.9909"/>
</g>
<!-- ProfileComponent  -->
<g id="node15" class="node">
<title>ProfileComponent </title>
<polygon fill="#80b1d3" stroke="#000000" points="833.432,-252 710.568,-252 710.568,-216 833.432,-216 833.432,-252"/>
<text text-anchor="middle" x="772" y="-229.8" font-family="Times,serif" font-size="14.00" fill="#000000">ProfileComponent </text>
</g>
<!-- AppModule&#45;&gt;ProfileComponent  -->
<g id="edge14" class="edge">
<title>AppModule&#45;&gt;ProfileComponent </title>
<path fill="none" stroke="#000000" stroke-dasharray="1,5" d="M874.0449,-183C839.1182,-183 795.0728,-183 795.0728,-183 795.0728,-183 795.0728,-205.8757 795.0728,-205.8757"/>
<polygon fill="#000000" stroke="#000000" points="791.5728,-205.8757 795.0728,-215.8757 798.5728,-205.8757 791.5728,-205.8757"/>
</g>
<!-- SearchResultsComponent  -->
<g id="node16" class="node">
<title>SearchResultsComponent </title>
<polygon fill="#80b1d3" stroke="#000000" points="692.1411,-252 527.8589,-252 527.8589,-216 692.1411,-216 692.1411,-252"/>
<text text-anchor="middle" x="610" y="-229.8" font-family="Times,serif" font-size="14.00" fill="#000000">SearchResultsComponent </text>
</g>
<!-- AppModule&#45;&gt;SearchResultsComponent  -->
<g id="edge15" class="edge">
<title>AppModule&#45;&gt;SearchResultsComponent </title>
<path fill="none" stroke="#000000" stroke-dasharray="1,5" d="M874.3207,-179C800.5723,-179 654.7839,-179 654.7839,-179 654.7839,-179 654.7839,-205.9909 654.7839,-205.9909"/>
<polygon fill="#000000" stroke="#000000" points="651.2839,-205.9909 654.7839,-215.9909 658.2839,-205.991 651.2839,-205.9909"/>
</g>
<!-- SignupComponent  -->
<g id="node17" class="node">
<title>SignupComponent </title>
<polygon fill="#80b1d3" stroke="#000000" points="510.0066,-252 385.9934,-252 385.9934,-216 510.0066,-216 510.0066,-252"/>
<text text-anchor="middle" x="448" y="-229.8" font-family="Times,serif" font-size="14.00" fill="#000000">SignupComponent </text>
</g>
<!-- AppModule&#45;&gt;SignupComponent  -->
<g id="edge16" class="edge">
<title>AppModule&#45;&gt;SignupComponent </title>
<path fill="none" stroke="#000000" stroke-dasharray="1,5" d="M874.2953,-175C766.8904,-175 489.1566,-175 489.1566,-175 489.1566,-175 489.1566,-205.9775 489.1566,-205.9775"/>
<polygon fill="#000000" stroke="#000000" points="485.6566,-205.9774 489.1566,-215.9775 492.6566,-205.9775 485.6566,-205.9774"/>
</g>
<!-- HomeService -->
<g id="node18" class="node">
<title>HomeService</title>
<ellipse fill="#fdb462" stroke="#000000" cx="380" cy="-104" rx="63.6813" ry="18"/>
<text text-anchor="middle" x="380" y="-99.8" font-family="Times,serif" font-size="14.00" fill="#000000">HomeService</text>
</g>
<!-- HomeService&#45;&gt;AppModule -->
<g id="edge17" class="edge">
<title>HomeService&#45;&gt;AppModule</title>
<path fill="none" stroke="#000000" d="M414.6689,-119.194C414.6689,-136.6752 414.6689,-163 414.6689,-163 414.6689,-163 864.1191,-163 864.1191,-163"/>
<polygon fill="#000000" stroke="#000000" points="864.1191,-166.5001 874.1191,-163 864.119,-159.5001 864.1191,-166.5001"/>
</g>
<!-- UserService -->
<g id="node19" class="node">
<title>UserService</title>
<ellipse fill="#fdb462" stroke="#000000" cx="240" cy="-104" rx="58.4415" ry="18"/>
<text text-anchor="middle" x="240" y="-99.8" font-family="Times,serif" font-size="14.00" fill="#000000">UserService</text>
</g>
<!-- UserService&#45;&gt;AppModule -->
<g id="edge18" class="edge">
<title>UserService&#45;&gt;AppModule</title>
<path fill="none" stroke="#000000" d="M240,-122.2222C240,-140.8285 240,-167 240,-167 240,-167 864.2233,-167 864.2233,-167"/>
<polygon fill="#000000" stroke="#000000" points="864.2234,-170.5001 874.2233,-167 864.2233,-163.5001 864.2234,-170.5001"/>
</g>
<!-- AnswerService -->
<g id="node20" class="node">
<title>AnswerService</title>
<ellipse fill="#fdb462" stroke="#000000" cx="94" cy="-104" rx="70.0403" ry="18"/>
<text text-anchor="middle" x="94" y="-99.8" font-family="Times,serif" font-size="14.00" fill="#000000">AnswerService</text>
</g>
<!-- AnswerService&#45;&gt;AppModule -->
<g id="edge19" class="edge">
<title>AnswerService&#45;&gt;AppModule</title>
<path fill="none" stroke="#000000" d="M94,-122.308C94,-142.1455 94,-171 94,-171 94,-171 864.1068,-171 864.1068,-171"/>
<polygon fill="#000000" stroke="#000000" points="864.1068,-174.5001 874.1068,-171 864.1068,-167.5001 864.1068,-174.5001"/>
</g>
</g>
</svg>
